<?xml version="1.0" encoding="utf-8"?>
<!-- Generator: Adobe Illustrator 23.1.1, SVG Export Plug-In . SVG Version: 6.00 Build 0)  -->
<svg version="1.1"
	 id="svg2890" xmlns:cc="http://creativecommons.org/ns#" xmlns:dc="http://purl.org/dc/elements/1.1/" xmlns:inkscape="http://www.inkscape.org/namespaces/inkscape" xmlns:rdf="http://www.w3.org/1999/02/22-rdf-syntax-ns#" xmlns:sodipodi="http://sodipodi.sourceforge.net/DTD/sodipodi-0.dtd" xmlns:svg="http://www.w3.org/2000/svg"
	 xmlns="http://www.w3.org/2000/svg" xmlns:xlink="http://www.w3.org/1999/xlink" x="0px" y="0px" viewBox="0 0 1.1 1.1"
	 style="enable-background:new 0 0 1.1 1.1;" xml:space="preserve">
<style type="text/css">
	.st0{fill-rule:evenodd;clip-rule:evenodd;fill:url(#logo-background_1_);}
	.st1{fill-rule:evenodd;clip-rule:evenodd;fill:#330080;}
	.st2{fill:#330080;}
	.st3{fill:#ECECEC;}
	.st4{font-family:'Arial-BoldMT';}
	.st5{font-size:12.7448px;}
	.st6{font-size:14.1608px;}
</style>
<defs>
	
	
		<inkscape:perspective  id="perspective2898" inkscape:persp3d-origin="400 : 200 : 1" inkscape:vp_x="0 : 300 : 1" inkscape:vp_y="0 : 1000 : 0" inkscape:vp_z="800 : 300 : 1" sodipodi:type="inkscape:persp3d">
		</inkscape:perspective>
	
		<inkscape:perspective  id="perspective2914" inkscape:persp3d-origin="0.5 : 0.33333333 : 1" inkscape:vp_x="0 : 0.5 : 1" inkscape:vp_y="0 : 1000 : 0" inkscape:vp_z="1 : 0.5 : 1" sodipodi:type="inkscape:persp3d">
		</inkscape:perspective>
	
		<inkscape:perspective  id="perspective2942" inkscape:persp3d-origin="0.5 : 0.33333333 : 1" inkscape:vp_x="0 : 0.5 : 1" inkscape:vp_y="0 : 1000 : 0" inkscape:vp_z="1 : 0.5 : 1" sodipodi:type="inkscape:persp3d">
		</inkscape:perspective>
	
		<inkscape:perspective  id="perspective3760" inkscape:persp3d-origin="0.5 : 0.33333333 : 1" inkscape:vp_x="0 : 0.5 : 1" inkscape:vp_y="0 : 1000 : 0" inkscape:vp_z="1 : 0.5 : 1" sodipodi:type="inkscape:persp3d">
		</inkscape:perspective>
</defs>
<sodipodi:namedview  bordercolor="#666666" borderlayer="false" borderopacity="1.0" id="base" inkscape:current-layer="layer1" inkscape:cx="191.82606" inkscape:cy="242.50319" inkscape:document-units="px" inkscape:pageopacity="0.0" inkscape:pageshadow="2" inkscape:snap-grids="false" inkscape:snap-page="false" inkscape:snap-to-guides="false" inkscape:window-height="886" inkscape:window-maximized="0" inkscape:window-width="1082" inkscape:window-x="421" inkscape:window-y="115" inkscape:zoom="0.6" pagecolor="#ffffff" showborder="false" showgrid="false">
	</sodipodi:namedview>
<g id="layer1" transform="translate(1.2191081,151.66667)" inkscape:groupmode="layer" inkscape:label="Layer 1">
	
		<linearGradient id="logo-background_1_" gradientUnits="userSpaceOnUse" x1="-4.976" y1="805.9413" x2="-4.9761" y2="802.0471" gradientTransform="matrix(1 0 0 1 4.8764 -930.5662)">
		<stop  offset="0" style="stop-color:#BBBBBB"/>
		<stop  offset="1" style="stop-color:#EEEEEE"/>
	</linearGradient>
	<path id="logo-background" inkscape:label="logo-background" class="st0" d="M-21.4-177.8h42.5c1.5,0,2.7,1.2,2.7,2.7v47.8
		c0,1.5-1.2,2.7-2.7,2.7h-42.5c-1.5,0-2.7-1.2-2.7-2.7v-47.8C-24-176.6-22.8-177.8-21.4-177.8z"/>
	<rect id="rect2904" x="-28.4" y="-152.4" class="st1" width="56.6" height="17.1"/>
	<path id="path2932" class="st2" d="M-26.2-133.7c-1.2-0.9-2.2-1.6-2.2-1.6s1,0,2.2,0h2.2l0.1,1.6c0,0.9,0.1,1.6,0.1,1.6
		C-24-132.2-25-132.9-26.2-133.7L-26.2-133.7L-26.2-133.7z"/>
	<path id="path2932-2" class="st2" d="M26.1-133.7c1.2-0.9,2.2-1.7,2.2-1.7s-1,0-2.2,0h-2.2v1.6c0,0.9,0,1.6,0,1.6
		C23.9-132.1,24.9-132.8,26.1-133.7L26.1-133.7L26.1-133.7z"/>
	<g id="flowRoot3796" transform="translate(0,-200)">
	</g>
	<text transform="matrix(1 0 0 1 -23.266 -139.8453)" class="st3 st4 st5">SMASH</text>
	<text transform="matrix(1 0 0 1 -12.2738 -156.2481)" class="st2 st4 st6">gut</text>
</g>
</svg>
