<?xml version="1.0" encoding="utf-8"?>
<!-- Generator: Adobe Illustrator 23.1.1, SVG Export Plug-In . SVG Version: 6.00 Build 0)  -->
<svg version="1.1"
	 id="svg7106" xmlns:cc="http://creativecommons.org/ns#" xmlns:dc="http://purl.org/dc/elements/1.1/" xmlns:inkscape="http://www.inkscape.org/namespaces/inkscape" xmlns:rdf="http://www.w3.org/1999/02/22-rdf-syntax-ns#" xmlns:sodipodi="http://sodipodi.sourceforge.net/DTD/sodipodi-0.dtd" xmlns:svg="http://www.w3.org/2000/svg"
	 xmlns="http://www.w3.org/2000/svg" xmlns:xlink="http://www.w3.org/1999/xlink" x="0px" y="0px" viewBox="0 0 2 1.6"
	 style="enable-background:new 0 0 2 1.6;" xml:space="preserve">
<style type="text/css">
	.st0{fill:url(#rect7145_1_);stroke:#FFFFFF;stroke-width:0.5;stroke-miterlimit:10;}
	.st1{fill:#330080;stroke:#FFFFFF;stroke-width:0.5;stroke-miterlimit:10;}
</style>
<sodipodi:namedview  bordercolor="#666666" borderopacity="1.0" gridtolerance="10.0" guidetolerance="10.0" id="base" inkscape:current-layer="svg7106" inkscape:cx="41.78189" inkscape:cy="40.178137" inkscape:pageopacity="0.0" inkscape:pageshadow="2" inkscape:window-height="1151" inkscape:window-maximized="1" inkscape:window-width="1920" inkscape:window-x="0" inkscape:window-y="25" inkscape:zoom="6.2540588" objecttolerance="10.0" pagecolor="#ffffff" showgrid="false">
	</sodipodi:namedview>
<radialGradient id="rect7145_1_" cx="506.0386" cy="-109.8864" r="1.3526" gradientTransform="matrix(6.2579 0 0 3.9581 -3165.5627 435.75)" gradientUnits="userSpaceOnUse">
	<stop  offset="0" style="stop-color:#FFFFFF"/>
	<stop  offset="1" style="stop-color:#585858"/>
</radialGradient>
<rect id="rect7145" x="-3.3" y="-1.9" class="st0" width="8.5" height="5.4"/>
<path id="path7153" inkscape:connector-curvature="0" class="st1" d="M-3.3-1.9v5l0,0.4L1,0.8L-3.3-1.9L-3.3-1.9L-3.3-1.9z"/>
<path id="path7155" inkscape:connector-curvature="0" class="st1" d="M5.2-1.9v5l0,0.4L1,0.8L5.2-1.9L5.2-1.9L5.2-1.9z"/>
<path id="path7157" inkscape:connector-curvature="0" class="st1" d="M-0.2,0.6l-3,2.9l0,0h8.5l0,0l-3-2.9C1.4-0.1,0.6-0.1-0.2,0.6
	L-0.2,0.6z"/>
<path id="path7143" inkscape:connector-curvature="0" class="st1" d="M-0.2,0.7l-3-2.6l0,0h8.5l0,0l-3,2.6C1.4,1.4,0.6,1.4-0.2,0.7
	L-0.2,0.7z"/>
</svg>
